<?xml version="1.0" encoding="UTF-8"?>
<svg width="410px" height="410px" viewBox="0 0 410 410" version="1.1" xmlns="http://www.w3.org/2000/svg" xmlns:xlink="http://www.w3.org/1999/xlink">
    <!-- Generator: Sketch 55.2 (78181) - https://sketchapp.com -->
    <title>Logo</title>
    <desc>Created with Sketch.</desc>
    <g id="Jres" stroke="none" stroke-width="1" fill="none" fill-rule="evenodd">
        <g id="Logo">
            <polygon id="Polygon" fill-opacity="0.253824301" fill="#3F51B5" points="205 0 349.95689 60.0431099 410 205 349.95689 349.95689 205 410 60.0431099 349.95689 0 205 60.0431099 60.0431099"></polygon>
            <polygon id="Polygon" fill="#FFFFFF" points="205 29 329.450793 80.5492065 381 205 329.450793 329.450793 205 381 80.5492065 329.450793 29 205 80.5492065 80.5492065"></polygon>
            <polygon id="Polygon" fill="#3F51B5" points="205.5 51 314.747998 96.2520023 360 205.5 314.747998 314.747998 205.5 360 96.2520023 314.747998 51 205.5 96.2520023 96.2520023"></polygon>
            <path d="M133.285156,185.693359 L133.285156,213.623047 C133.285156,217.985048 133.000328,221.142568 132.430664,223.095703 C131.861,225.048838 130.908861,226.790357 129.574219,228.320312 C127.84895,230.306 125.456396,231.80338 122.396484,232.8125 C119.336573,233.82162 115.658225,234.326172 111.361328,234.326172 C108.333969,234.326172 105.412449,234.033206 102.59668,233.447266 C99.7809104,232.861325 97.0709766,231.982428 94.4667969,230.810547 C93.034498,230.159502 92.098635,229.313156 91.6591797,228.271484 C91.2197244,227.229812 91,225.537121 91,223.193359 L91,213.134766 C91,210.335272 91.406897,208.382167 92.2207031,207.275391 C93.0345093,206.168614 94.4505107,205.615234 96.46875,205.615234 C99.3658999,205.615234 100.960936,207.747375 101.253906,212.011719 C101.286458,212.76042 101.335286,213.330076 101.400391,213.720703 C101.791018,217.496764 102.669915,220.07649 104.037109,221.459961 C105.404304,222.843431 107.585271,223.535156 110.580078,223.535156 C114.291034,223.535156 116.903313,222.550466 118.416992,220.581055 C119.930672,218.611644 120.6875,215.022812 120.6875,209.814453 L120.6875,185.693359 L112.484375,185.693359 C110.270822,185.693359 108.683924,185.270187 107.723633,184.423828 C106.763342,183.57747 106.283203,182.210296 106.283203,180.322266 C106.283203,178.401683 106.747066,177.034509 107.674805,176.220703 C108.602544,175.406897 110.205718,175 112.484375,175 L137.386719,175 C139.665376,175 141.26855,175.406897 142.196289,176.220703 C143.124028,177.034509 143.587891,178.401683 143.587891,180.322266 C143.587891,182.210296 143.107752,183.57747 142.147461,184.423828 C141.18717,185.270187 139.600271,185.693359 137.386719,185.693359 L133.285156,185.693359 Z M173.470703,206.298828 L173.470703,222.119141 L184.994141,222.119141 C187.207693,222.119141 188.778316,222.526038 189.706055,223.339844 C190.633794,224.15365 191.097656,225.504548 191.097656,227.392578 C191.097656,229.313161 190.633794,230.69661 189.706055,231.542969 C188.778316,232.389327 187.207693,232.8125 184.994141,232.8125 L157.699219,232.8125 C155.453114,232.8125 153.858078,232.389327 152.914062,231.542969 C151.970047,230.69661 151.498047,229.313161 151.498047,227.392578 C151.498047,225.504548 151.961909,224.15365 152.889648,223.339844 C153.817387,222.526038 155.420562,222.119141 157.699219,222.119141 L161.410156,222.119141 L161.410156,198.388672 L159.310547,198.388672 C157.096994,198.388672 155.526372,197.973637 154.598633,197.143555 C153.670894,196.313472 153.207031,194.938161 153.207031,193.017578 C153.207031,191.096996 153.654618,189.729822 154.549805,188.916016 C155.444991,188.102209 157.03189,187.695312 159.310547,187.695312 L169.710938,187.695312 C170.589848,187.695312 171.273435,187.882485 171.761719,188.256836 C172.250002,188.631187 172.494141,189.143877 172.494141,189.794922 L172.494141,197.021484 C176.042335,193.212872 179.354477,190.4948 182.430664,188.867188 C185.506851,187.239575 188.818993,186.425781 192.367188,186.425781 C195.58986,186.425781 198.145173,187.150058 200.033203,188.598633 C201.921233,190.047208 202.865234,191.992175 202.865234,194.433594 C202.865234,196.321624 202.214199,197.87597 200.912109,199.09668 C199.61002,200.317389 197.933604,200.927734 195.882812,200.927734 C194.417961,200.927734 192.68458,200.39063 190.682617,199.316406 C188.680654,198.242182 187.289066,197.705078 186.507812,197.705078 C184.945305,197.705078 183.10613,198.404941 180.990234,199.804688 C178.874338,201.204434 176.367853,203.369126 173.470703,206.298828 Z M222.396484,213.134766 C223.242843,216.748065 224.878569,219.449861 227.303711,221.240234 C229.728853,223.030608 232.959615,223.925781 236.996094,223.925781 C241.032572,223.925781 245.020163,222.941091 248.958984,220.97168 C252.897806,219.002269 255.274084,218.017578 256.087891,218.017578 C257.292324,218.017578 258.277014,218.465165 259.041992,219.360352 C259.80697,220.255538 260.189453,221.402988 260.189453,222.802734 C260.189453,225.862646 257.927106,228.499338 253.402344,230.712891 C248.877582,232.926443 243.278679,234.033203 236.605469,234.033203 C228.727825,234.033203 222.323267,231.819684 217.391602,227.392578 C212.459936,222.965473 209.994141,217.268915 209.994141,210.302734 C209.994141,203.369106 212.459936,197.688824 217.391602,193.261719 C222.323267,188.834613 228.727825,186.621094 236.605469,186.621094 C243.636754,186.621094 249.463519,188.696268 254.085938,192.84668 C258.708356,196.997091 261.019531,202.083303 261.019531,208.105469 C261.019531,210.026051 260.555669,211.344397 259.62793,212.060547 C258.700191,212.776696 256.787775,213.134766 253.890625,213.134766 L222.396484,213.134766 Z M248.714844,205.517578 C248.161456,202.490219 246.737316,200.146493 244.442383,198.486328 C242.147449,196.826164 239.160826,195.996094 235.482422,195.996094 C231.934227,195.996094 229.07781,196.785474 226.913086,198.364258 C224.748362,199.943042 223.242843,202.327458 222.396484,205.517578 L248.714844,205.517578 Z M282.796875,232.128906 C281.950517,232.779951 281.079757,233.276365 280.18457,233.618164 C279.289384,233.959963 278.369796,234.130859 277.425781,234.130859 C276.026035,234.130859 275.041344,233.756514 274.47168,233.007812 C273.902015,232.259111 273.617188,230.859385 273.617188,228.808594 L273.617188,222.314453 C273.617188,220.166005 273.975257,218.64421 274.691406,217.749023 C275.407556,216.853837 276.644522,216.40625 278.402344,216.40625 C280.322926,216.40625 281.885411,217.333975 283.089844,219.189453 C283.805993,220.198573 284.408201,220.947263 284.896484,221.435547 C286.491544,222.867846 288.346995,223.942054 290.462891,224.658203 C292.578787,225.374353 294.987617,225.732422 297.689453,225.732422 C300.033215,225.732422 301.904941,225.276697 303.304688,224.365234 C304.704434,223.453771 305.404297,222.265632 305.404297,220.800781 C305.404297,218.164049 301.644569,216.341151 294.125,215.332031 C292.464835,215.136718 291.162765,214.957683 290.21875,214.794922 C284.554659,214.013668 280.339207,212.475597 277.572266,210.180664 C274.805325,207.885731 273.421875,204.801452 273.421875,200.927734 C273.421875,196.337868 275.082015,192.789726 278.402344,190.283203 C281.722673,187.77668 286.458954,186.523438 292.611328,186.523438 C294.727224,186.523438 296.900054,186.694334 299.129883,187.036133 C301.359712,187.377931 303.646473,187.906897 305.990234,188.623047 C306.673832,187.809241 307.398108,187.207033 308.163086,186.816406 C308.928064,186.425779 309.782547,186.230469 310.726562,186.230469 C312.061205,186.230469 313.078447,186.645504 313.77832,187.475586 C314.478194,188.305668 314.828125,189.550773 314.828125,191.210938 L314.828125,197.216797 C314.828125,198.616543 314.470056,199.698889 313.753906,200.463867 C313.037757,201.228845 312.028652,201.611328 310.726562,201.611328 C309.39192,201.611328 307.105159,200.447603 303.866211,198.120117 C300.627262,195.792632 297.380225,194.628906 294.125,194.628906 C291.585925,194.628906 289.616543,195.043941 288.216797,195.874023 C286.81705,196.704106 286.117188,197.851555 286.117188,199.316406 C286.117188,201.595063 289.046846,203.124996 294.90625,203.90625 C296.598967,204.101563 297.933589,204.264322 298.910156,204.394531 C306.266964,205.468755 311.320624,207.071929 314.071289,209.204102 C316.821954,211.336274 318.197266,214.501932 318.197266,218.701172 C318.197266,223.616561 316.382505,227.416979 312.75293,230.102539 C309.123354,232.788099 303.972039,234.130859 297.298828,234.130859 C294.694648,234.130859 292.188163,233.959963 289.779297,233.618164 C287.370431,233.276365 285.04298,232.779951 282.796875,232.128906 Z" id="Jres" fill="#FFFFFF" fill-rule="nonzero"></path>
        </g>
    </g>
</svg>